<?xml version="1.0" encoding="UTF-8"?>
<svg id="Calque_2" data-name="Calque 2" xmlns="http://www.w3.org/2000/svg" viewBox="0 0 537.31 541.5">
  <defs>
    <style>
      .cls-1 {
        fill: #21fee5;
        stroke-width: 0px;
      }
    </style>
  </defs>
  <g id="Calque_1-2" data-name="Calque 1">
    <g>
      <path class="cls-1" d="m302.76,241.21c0,43.66-.96,87.34.31,130.96.97,33.03,24.11,64.23,60.58,70.16,24.7,4.02,46.45-1.68,63.48-20.63,9.7-10.79,15.14-23.95,17.46-38.32.78-4.82.99-9.67.99-14.56-.03-72.28.01-144.56.05-216.84,0-2.5-.03-4.98.94-7.4,2.5-6.24,7.73-9.41,14-8.35,6.59,1.11,10.65,5.77,10.72,12.64.12,11.47.11,22.95.11,34.43.03,61.73.31,123.46-.02,185.19-.17,31.59-11.9,58.65-35.94,79.45-14.12,12.22-30.9,18.83-49.85,20.54-27.71,2.49-51.86-5.55-72.88-23.1-16.99-14.19-27.63-32.55-33.03-54.06-3.03-12.04-3.1-24.23-3.08-36.49.09-82.31.13-164.61.26-246.92,0-3.17-.94-4.34-4.17-5.24-8.62-2.41-18.43,4.56-22.39,11.42-11.41,19.73-21.66,40.08-32.39,60.18-13.22,24.75-26.31,49.56-39.3,74.43-15.22,29.12-30.19,58.38-45.43,87.49-11.67,22.28-23.6,44.42-35.4,66.63-5.11,9.61-9.66,19.44-8.7,30.7.96,11.27,5.22,20.57,16.43,25.37,2.75,1.18,5.45,2.48,7.69,4.7,3.46,3.42,4.71,7.25,3.12,11.83-1.7,4.91-5.43,7.38-10.47,7.68-8.99.53-16.44-3.34-22.94-9.03-12.98-11.36-17.57-26.41-18.34-43.05-.55-11.82,3.11-22.62,8.14-33.02,11.41-23.6,24.02-46.57,36.23-69.76,14.84-28.17,29.36-56.51,44.19-84.69,16.49-31.35,33.2-62.58,49.77-93.89,7.02-13.27,13.9-26.63,20.9-39.91,6.14-11.65,13.97-21.85,26.26-27.54,13.48-6.24,27.06-6.55,40.02,1.38,6.72,4.11,10.51,10.54,11.47,18.49,2.23,18.51.83,37.1,1.01,55.65.27,27.83.07,55.66.07,83.49.05,0,.1,0,.14,0Z"/>
      <path class="cls-1" d="m345.1,228.12c0-44.72-.14-89.43.05-134.15.1-23.54-10.4-41.45-29.11-54.47-28.56-19.87-66.9-17.22-93.63,5.08-10.98,9.16-18.84,20.51-25.75,32.7-18.58,32.78-35.91,66.24-53.73,99.43-15.45,28.78-30.98,57.53-45.89,86.59-15.87,30.92-32.86,61.23-48.41,92.32-6.01,12.01-12.76,23.68-17.51,36.25-12.17,32.23-7.46,62.32,12.74,89.94,17.69,24.18,42.2,34.8,71.76,34.75,13.98-.02,27.97-.13,41.94.11,4.78.08,9.74-.16,14.2,2.43,3.25,1.89,5.99,4.47,5.9,8.17-.11,4.31-1.51,8.57-5.93,10.8-3.65,1.84-7.36,3.15-11.62,3.11-17.41-.16-34.83.24-52.23-.14-24.54-.54-46.45-8.83-65.42-24.31-22.75-18.55-35.76-42.95-40.73-71.59-4.83-27.87.65-54.18,13.5-79.16,13.66-26.57,26.96-53.32,40.93-79.72,24.43-46.2,49.2-92.22,73.92-138.26,14.52-27.05,29.07-54.08,43.88-80.97,11.07-20.11,24.94-37.87,44.88-50.09,14.59-8.94,30.26-14.3,47.48-15.86,25.81-2.34,48.57,5.1,68.64,20.63,20.04,15.51,31.62,36.32,35.22,61.52,1.85,13,1,26.07,1.14,39.09.39,35.21.62,70.44.18,105.65-.59,47.61-.01,95.21-.35,142.81-.04,6.07,1.57,11.47,6.56,15.37,2.07,1.62,1.46,3.56.66,5.31-2.34,5.11-6.44,8.41-11.92,9.19-11.35,1.61-16.69-2.75-19.29-15.22-1.38-6.59-2.07-13.24-2.07-20,.05-45.77.02-91.54.02-137.31Z"/>
      <path class="cls-1" d="m511.23,303.89c0-29.27-.34-58.55.11-87.82.35-22.67.14-45.34.62-68,.14-6.74,5.7-12.36,12.04-11.99,5.64.33,12.35,5.4,12.32,12.15-.06,13.84.2,27.68.18,41.52-.07,38.19-.65,76.38-.18,114.55.35,28.98.05,57.96-.13,86.93-.15,24.08-6.26,46.82-17.69,68.04-18.7,34.71-46.41,59.3-83.53,72.7-23.57,8.51-47.9,11.22-73.04,8.52-27.94-3-52.77-13.51-76.47-27.86-25.46-15.41-50.68-31.19-75.76-47.21-8.55-5.46-18.11-7.63-28.22-7.6-17.01.05-34.02,0-51.04.02-2.38,0-4.71-.2-7.04-.73-7.58-1.71-11.58-6.59-10.97-13.59.53-6,5.88-10.57,13.1-10.83,5.4-.2,10.81-.04,16.22-.05,13.45,0,26.92.34,40.35-.12,16.38-.56,30.65,4.83,44.18,13.49,28.17,18.02,56.24,36.23,85.39,52.63,23.68,13.32,49.2,19.74,76.64,17.71,36.3-2.68,67.11-16.48,91.47-43.94,14.68-16.55,23.97-35.8,28.78-57.22,2.07-9.23,2.6-18.7,2.56-28.21-.12-27.69-.04-55.39-.04-83.08h.15Z"/>
      <path class="cls-1" d="m537.26,46.49c.78,22.83-18.22,47.37-47.76,47.44-24.38.06-45.25-20.83-45.89-45.62C443,24.39,461.27.34,490.52,0c27.35-.32,48.03,22.99,46.74,46.49Zm-47.01-22.05c-12.02.07-22.41,10.48-22.45,22.5-.05,11.89,10.63,22.25,22.79,22.1,12.59-.15,22.22-10.12,22.18-22.94-.04-12.02-10.12-21.73-22.52-21.66Z"/>
    </g>
  </g>
</svg>